<svg xmlns="http://www.w3.org/2000/svg" viewBox="0 0 261.76 226.69">
  <path fill="#41D1FF" d="M259.15 33.98 134.9 223.42c-2.57 3.91-8.31 3.94-10.92.06L1.51 33.99c-2.74-4.24.88-9.63 5.86-8.74l122.79 21.95c.77.14 1.56.14 2.33 0l120.79-21.92c4.97-.9 8.6 4.47 5.87 8.7Z"/>
  <path fill="#BD34FE" d="M188.95.04 98.95 17.66a3.27 3.27 0 0 0-2.64 3l-5.54 93.52a3.27 3.27 0 0 0 3.99 3.38l25.07-5.79a3.27 3.27 0 0 1 3.94 3.84l-7.45 36.44a3.27 3.27 0 0 0 4.16 3.76l15.49-4.7a3.27 3.27 0 0 1 4.16 3.76l-11.84 57.26c-.69 3.35 3.77 5.18 5.64 2.31l1.25-1.92 73.38-146.47a3.27 3.27 0 0 0-3.64-4.67l-25.81 4.98a3.27 3.27 0 0 1-3.76-4.08l16.84-58.03a3.27 3.27 0 0 0-3.24-4.22Z"/>
  <path fill="#FFEA83" d="M130.21 45.85 43.01 30.26a1.48 1.48 0 0 0-1.57 2.19l85.12 147.66c.83 1.44 3.02.84 3.01-.82l-2.35-79.72a1.48 1.48 0 0 1 1.8-1.49l25.1 5.81a1.48 1.48 0 0 0 1.7-2.04L131.8 46.7a1.48 1.48 0 0 0-1.59-.85Z"/>
</svg>
